<?xml version="1.0" encoding="UTF-8"?>
<svg width="173px" height="34px" viewBox="0 0 173 34" version="1.1" xmlns="http://www.w3.org/2000/svg" xmlns:xlink="http://www.w3.org/1999/xlink">
    <!-- Generator: Sketch 59.1 (86144) - https://sketch.com -->
    <title>header</title>
    <desc>Created with Sketch.</desc>
    <defs>
        <path d="M14.0273438,30 L2.515625,30 L2.515625,10.0117188 L14.0273438,10.0117188 L14.0273438,13.484375 L6.75390625,13.484375 L6.75390625,17.8730469 L13.5214844,17.8730469 L13.5214844,21.3457031 L6.75390625,21.3457031 L6.75390625,26.5 L14.0273438,26.5 L14.0273438,30 Z M18.1972656,10.0117188 L24.4179688,10.0117188 C27.2526183,10.0117188 29.310215,10.415035 30.5908203,11.2216797 C31.8714257,12.0283243 32.5117188,13.3111891 32.5117188,15.0703125 C32.5117188,16.2643289 32.2314481,17.2441368 31.6708984,18.0097656 C31.1103488,18.7753945 30.365239,19.2356763 29.4355469,19.390625 L29.4355469,19.5273438 C30.7024803,19.8098972 31.6162081,20.3385378 32.1767578,21.1132812 C32.7373075,21.8880247 33.0175781,22.9179623 33.0175781,24.203125 C33.0175781,26.0260508 32.3590561,27.4479116 31.0419922,28.46875 C29.7249283,29.4895884 27.9362092,30 25.6757812,30 L18.1972656,30 L18.1972656,10.0117188 Z M22.4355469,17.9277344 L24.8964844,17.9277344 C26.0449276,17.9277344 26.876625,17.7500018 27.3916016,17.3945312 C27.9065781,17.0390607 28.1640625,16.451176 28.1640625,15.6308594 C28.1640625,14.8652305 27.8837919,14.3160824 27.3232422,13.9833984 C26.7626925,13.6507145 25.8763081,13.484375 24.6640625,13.484375 L22.4355469,13.484375 L22.4355469,17.9277344 Z M22.4355469,21.2910156 L22.4355469,26.5 L25.1972656,26.5 C26.3639381,26.5 27.2252576,26.2766949 27.78125,25.8300781 C28.3372424,25.3834613 28.6152344,24.6998744 28.6152344,23.7792969 C28.6152344,22.1204344 27.4303504,21.2910156 25.0605469,21.2910156 L22.4355469,21.2910156 Z M53.0878906,30 L48.2753906,30 L43.0390625,21.578125 L41.2480469,22.8632812 L41.2480469,30 L37.0097656,30 L37.0097656,10.0117188 L41.2480469,10.0117188 L41.2480469,19.1582031 L42.9160156,16.8066406 L48.3300781,10.0117188 L53.0332031,10.0117188 L46.0605469,18.8574219 L53.0878906,30 Z" id="path-1"></path>
        <path d="M78.4902344,30.2734375 C76.3300673,30.2734375 74.6461649,29.6080796 73.4384766,28.2773438 C72.2307882,26.9466079 71.6269531,25.0826943 71.6269531,22.6855469 C71.6269531,20.3157434 72.2102806,18.4176504 73.3769531,16.9912109 C74.5436256,15.5647715 76.1158755,14.8515625 78.09375,14.8515625 C79.8437588,14.8515625 81.2246043,15.4622335 82.2363281,16.6835938 C83.2480519,17.904954 83.7539062,19.5637916 83.7539062,21.6601562 L83.7539062,22.7539062 L73.0488281,22.7539062 C73.0670574,24.7955831 73.5432896,26.3541613 74.4775391,27.4296875 C75.4117885,28.5052137 76.7493403,29.0429688 78.4902344,29.0429688 C79.3378949,29.0429688 80.0830046,28.9837246 80.7255859,28.8652344 C81.3681673,28.7467442 82.1816357,28.4915384 83.1660156,28.0996094 L83.1660156,29.3300781 C82.3274698,29.6946633 81.5527379,29.9430332 80.8417969,30.0751953 C80.1308558,30.2073574 79.3470095,30.2734375 78.4902344,30.2734375 Z M78.09375,16.0546875 C76.6627533,16.0546875 75.5143272,16.5263625 74.6484375,17.4697266 C73.7825478,18.4130907 73.2766934,19.7734286 73.1308594,21.5507812 L82.3183594,21.5507812 C82.3183594,19.8281164 81.9446652,18.4814502 81.1972656,17.5107422 C80.4498661,16.5400342 79.4153712,16.0546875 78.09375,16.0546875 Z M90.9453125,22.3574219 L85.7636719,15.1386719 L87.3222656,15.1386719 L91.7519531,21.4003906 L96.140625,15.1386719 L97.6308594,15.1386719 L92.53125,22.3574219 L98,30 L96.4277344,30 L91.7519531,23.3691406 L87.0488281,30 L85.5585938,30 L90.9453125,22.3574219 Z M107.597656,30.2734375 C105.309884,30.2734375 103.641932,29.4166752 102.59375,27.703125 L102.498047,27.703125 L102.539062,28.8515625 C102.575521,29.526045 102.59375,30.2643189 102.59375,31.0664062 L102.59375,36.7265625 L101.240234,36.7265625 L101.240234,15.1386719 L102.388672,15.1386719 L102.648438,17.2578125 L102.730469,17.2578125 C103.751307,15.6536378 105.382801,14.8515625 107.625,14.8515625 C109.630218,14.8515625 111.159174,15.5100846 112.211914,16.8271484 C113.264654,18.1442123 113.791016,20.0605343 113.791016,22.5761719 C113.791016,25.0188924 113.23731,26.9124282 112.129883,28.2568359 C111.022455,29.6012437 109.511728,30.2734375 107.597656,30.2734375 Z M107.570312,29.0703125 C109.092456,29.0703125 110.270504,28.505214 111.104492,27.375 C111.938481,26.244786 112.355469,24.6634216 112.355469,22.6308594 C112.355469,18.2649521 110.778662,16.0820312 107.625,16.0820312 C105.893221,16.0820312 104.621749,16.5582635 103.810547,17.5107422 C102.999345,18.4632209 102.59375,20.0149632 102.59375,22.1660156 L102.59375,22.6035156 C102.59375,24.927746 102.983395,26.5865836 103.762695,27.5800781 C104.541996,28.5735727 105.811189,29.0703125 107.570312,29.0703125 Z M119.259766,30 L117.90625,30 L117.90625,8.7265625 L119.259766,8.7265625 L119.259766,30 Z M136.527344,22.5488281 C136.527344,24.9733194 135.939459,26.8668552 134.763672,28.2294922 C133.587885,29.5921292 131.965505,30.2734375 129.896484,30.2734375 C128.593092,30.2734375 127.444666,29.9589875 126.451172,29.3300781 C125.457677,28.7011687 124.696617,27.798834 124.167969,26.6230469 C123.63932,25.4472597 123.375,24.0892004 123.375,22.5488281 C123.375,20.1243368 123.962885,18.2353583 125.138672,16.8818359 C126.314459,15.5283135 127.927724,14.8515625 129.978516,14.8515625 C132.020193,14.8515625 133.622065,15.537428 134.78418,16.9091797 C135.946295,18.2809313 136.527344,20.1607954 136.527344,22.5488281 Z M124.796875,22.5488281 C124.796875,24.590505 125.245764,26.1832625 126.143555,27.3271484 C127.041346,28.4710344 128.310539,29.0429688 129.951172,29.0429688 C131.591805,29.0429688 132.860998,28.4710344 133.758789,27.3271484 C134.65658,26.1832625 135.105469,24.590505 135.105469,22.5488281 C135.105469,20.4980366 134.652023,18.9075577 133.745117,17.7773438 C132.838212,16.6471298 131.564461,16.0820312 129.923828,16.0820312 C128.283195,16.0820312 127.018559,16.6448511 126.129883,17.7705078 C125.241206,18.8961645 124.796875,20.488922 124.796875,22.5488281 Z M146.494141,14.8515625 C147.12305,14.8515625 147.797522,14.9153639 148.517578,15.0429688 L148.257812,16.3417969 C147.638018,16.1868482 146.995446,16.109375 146.330078,16.109375 C145.063145,16.109375 144.024093,16.64713 143.212891,17.7226562 C142.401689,18.7981825 141.996094,20.1562418 141.996094,21.796875 L141.996094,30 L140.642578,30 L140.642578,15.1386719 L141.791016,15.1386719 L141.927734,17.8183594 L142.023438,17.8183594 C142.634118,16.7246039 143.285804,15.9567079 143.978516,15.5146484 C144.671227,15.0725889 145.509761,14.8515625 146.494141,14.8515625 Z M156.980469,30.2734375 C154.820302,30.2734375 153.136399,29.6080796 151.928711,28.2773438 C150.721023,26.9466079 150.117188,25.0826943 150.117188,22.6855469 C150.117188,20.3157434 150.700515,18.4176504 151.867188,16.9912109 C153.03386,15.5647715 154.60611,14.8515625 156.583984,14.8515625 C158.333993,14.8515625 159.714839,15.4622335 160.726562,16.6835938 C161.738286,17.904954 162.244141,19.5637916 162.244141,21.6601562 L162.244141,22.7539062 L151.539062,22.7539062 C151.557292,24.7955831 152.033524,26.3541613 152.967773,27.4296875 C153.902023,28.5052137 155.239575,29.0429688 156.980469,29.0429688 C157.828129,29.0429688 158.573239,28.9837246 159.21582,28.8652344 C159.858402,28.7467442 160.67187,28.4915384 161.65625,28.0996094 L161.65625,29.3300781 C160.817704,29.6946633 160.042972,29.9430332 159.332031,30.0751953 C158.62109,30.2073574 157.837244,30.2734375 156.980469,30.2734375 Z M156.583984,16.0546875 C155.152988,16.0546875 154.004562,16.5263625 153.138672,17.4697266 C152.272782,18.4130907 151.766928,19.7734286 151.621094,21.5507812 L160.808594,21.5507812 C160.808594,19.8281164 160.4349,18.4814502 159.6875,17.5107422 C158.9401,16.5400342 157.905606,16.0546875 156.583984,16.0546875 Z M172.197266,14.8515625 C172.826175,14.8515625 173.500647,14.9153639 174.220703,15.0429688 L173.960938,16.3417969 C173.341143,16.1868482 172.698571,16.109375 172.033203,16.109375 C170.76627,16.109375 169.727218,16.64713 168.916016,17.7226562 C168.104814,18.7981825 167.699219,20.1562418 167.699219,21.796875 L167.699219,30 L166.345703,30 L166.345703,15.1386719 L167.494141,15.1386719 L167.630859,17.8183594 L167.726562,17.8183594 C168.337243,16.7246039 168.988929,15.9567079 169.681641,15.5146484 C170.374352,15.0725889 171.212886,14.8515625 172.197266,14.8515625 Z" id="path-2"></path>
    </defs>
    <g id="menu-2" stroke="none" stroke-width="1" fill="none" fill-rule="evenodd">
        <g id="Artboard" transform="translate(-43.000000, -45.000000)">
            <g id="header" transform="translate(41.000000, 42.000000)">
                <g id="Group" fill-rule="nonzero">
                    <g id="EBK">
                        <use fill="#0079FF" xlink:href="#path-1"></use>
                        <use fill="#112F42" xlink:href="#path-1"></use>
                    </g>
                    <g id="explorer">
                        <use fill="#0079FF" xlink:href="#path-2"></use>
                        <use fill="#112F42" xlink:href="#path-2"></use>
                    </g>
                </g>
                <line x1="62" y1="8" x2="62" y2="33" id="Path-2" stroke="#112F42" stroke-width="2"></line>
            </g>
        </g>
    </g>
</svg>