<svg xmlns="http://www.w3.org/2000/svg" xmlns:xlink="http://www.w3.org/1999/xlink" width="24" height="24" viewBox="0 0 24 24">
    <defs>
        <path id="prefix__a" d="M142.689 14c1.617 0 3.06.33 4.332.99 1.271.661 2.252 1.6 2.943 2.82.69 1.218 1.036 2.623 1.036 4.216 0 1.057-.169 2.024-.507 2.9-.338.878-.816 1.566-1.433 2.065-.617.499-1.334.748-2.15.748-.543 0-1.025-.13-1.443-.39-.42-.26-.72-.604-.904-1.03h-.177c-.793.947-1.804 1.42-3.03 1.42-1.302 0-2.327-.39-3.076-1.172-.75-.782-1.124-1.851-1.124-3.21 0-1.548.492-2.796 1.477-3.742.984-.947 2.27-1.42 3.858-1.42.631 0 1.328.06 2.088.181s1.387.266 1.88.435l-.254 5.383c0 1.02.28 1.53.838 1.53.47 0 .845-.342 1.124-1.029.28-.686.419-1.583.419-2.691 0-1.182-.246-2.226-.738-3.132-.493-.907-1.185-1.599-2.078-2.076-.893-.477-1.913-.715-3.059-.715-1.484 0-2.774.304-3.869.913-1.095.61-1.934 1.489-2.519 2.637-.584 1.149-.876 2.475-.876 3.98 0 2.026.542 3.58 1.626 4.662 1.084 1.083 2.654 1.624 4.712 1.624.779 0 1.635-.086 2.568-.258.934-.173 1.852-.424 2.756-.755v2.114c-1.573.668-3.318 1.002-5.236 1.002-2.792 0-4.97-.734-6.53-2.202C133.78 28.33 133 26.29 133 23.678c0-1.814.399-3.46 1.196-4.939.797-1.478 1.933-2.638 3.406-3.478 1.473-.84 3.169-1.261 5.087-1.261zm-.066 6.198c-.919 0-1.633.286-2.144.859-.51.572-.766 1.354-.766 2.345 0 1.548.632 2.323 1.896 2.323.661 0 1.164-.233 1.51-.7.345-.465.555-1.223.628-2.273l.143-2.433c-.374-.08-.797-.12-1.267-.12z"/>
    </defs>
    <g fill="none" transform="translate(-130 -11)">
        <use fill="#112F42" xlink:href="#prefix__a"/>
        <use fill="#8897A0" xlink:href="#prefix__a"/>
    </g>
</svg>
