<svg xmlns="http://www.w3.org/2000/svg" width="24" height="24" viewBox="0 0 24 24">
    <g fill="none" fill-rule="evenodd">
        <path fill="#ACB4C9" d="M5.982 6.801c-.054.023.365.118 1.257.287 1.338.252.943.592 1.68.661.492.046.943-.174 1.354-.661l4.473 6.824H.928l5.054-7.11z" transform="translate(4 4)"/>
        <path stroke="#34393D" stroke-width="2" d="M6.378.978H9.78c.552 0 1 .448 1 1 0 .094-.013.187-.039.277l-.625 2.169c-.08.275-.036.572.118.814l4.826 7.584c.297.466.16 1.084-.306 1.38-.16.102-.347.157-.537.157H1.852c-.552 0-1-.448-1-1 0-.19.054-.375.155-.535l4.809-7.61c.144-.228.19-.505.127-.768l-.537-2.234c-.13-.537.202-1.077.739-1.206.076-.019.155-.028.233-.028z" transform="translate(4 4)"/>
    </g>
</svg>
