<svg xmlns="http://www.w3.org/2000/svg" width="24" height="24" viewBox="0 0 24 24">
    <g fill="none" fill-rule="evenodd">
        <g>
            <path stroke="#112F42" stroke-width="1.3" d="M6.727.093l5.575 2.993c.269.117.423.39.423.7v5.87c0 .272-.154.544-.423.7L6.727 13.31c-.23.117-.5.117-.73 0L.423 10.317C.153 10.2 0 9.928 0 9.617v-5.87c0-.272.154-.544.423-.7L5.997.055c.23-.078.538-.078.73.04z" transform="translate(3.248 1) translate(2.478)"/>
            <path stroke="#112F42" stroke-linecap="round" stroke-linejoin="round" stroke-width="1.3" d="M0.269 3.475L6.293 13.175 12.469 3.475 3.395 8.325" transform="translate(3.248 1) translate(2.478)"/>
            <path fill="#112F42" fill-rule="nonzero" d="M6.382 4.564c.636 0 1.153-.523 1.153-1.167s-.517-1.166-1.153-1.166c-.637 0-1.154.522-1.154 1.166 0 .644.517 1.167 1.154 1.167z" transform="translate(3.248 1) translate(2.478)"/>
        </g>
        <g fill-rule="nonzero">
            <path d="M2.706 2.26c-.268.005-.509.056-.72.155-.212.1-.364.248-.456.447v2.095H.644V1.494h.813v.74c.062-.12.135-.226.218-.32.084-.096.174-.178.271-.249.097-.07.195-.124.294-.162.1-.037.195-.056.288-.056h.109c.024 0 .047.003.07.007v.806zm1.93 2.763c-.278 0-.529-.048-.753-.142-.225-.095-.417-.224-.575-.387-.159-.163-.281-.353-.367-.568-.086-.216-.129-.443-.129-.681 0-.247.042-.48.126-.697.083-.218.204-.41.363-.575.159-.166.351-.297.578-.394.227-.096.482-.145.764-.145.282 0 .534.049.756.145.223.097.412.227.569.39.156.163.275.353.357.569.081.216.122.44.122.674 0 .057-.001.112-.004.165-.002.053-.007.097-.016.132H3.75c.014.137.047.258.1.364.052.105.12.196.204.27.084.076.179.133.285.172.105.04.215.06.33.06.176 0 .343-.043.499-.129.156-.086.263-.2.32-.34l.76.211c-.127.265-.331.482-.61.651-.28.17-.614.255-1.002.255zm.899-2.089c-.022-.26-.118-.468-.288-.624-.17-.157-.375-.235-.618-.235-.119 0-.23.021-.333.063-.104.042-.195.1-.275.175-.079.075-.144.165-.195.271-.05.106-.08.222-.089.35h1.798zm6.833 2.023h-.885V3.014c0-.278-.048-.48-.142-.608-.095-.128-.226-.192-.394-.192-.176 0-.341.067-.495.201-.155.135-.265.31-.33.526v2.016h-.886V3.014c0-.278-.048-.48-.142-.608-.095-.128-.226-.192-.394-.192-.171 0-.336.066-.492.198-.156.132-.268.306-.334.522v2.023H6.99V1.494h.8v.64c.127-.224.302-.397.525-.518.222-.121.477-.182.763-.182.29 0 .516.07.674.212.159.14.26.315.304.522.141-.238.32-.42.535-.546.216-.125.463-.188.74-.188.212 0 .386.04.523.119.136.08.242.183.317.31.075.128.127.274.155.437.029.163.043.328.043.495v2.162zm.773 0V1.494h.886v3.463h-.886zm0-3.946V.132h.886v.88h-.886zm2.234.483l.747 1.083.053.12.066-.12.74-1.083h.912l-1.236 1.738 1.256 1.725H17l-.767-1.078-.06-.112-.052.112-.76 1.078h-.912l1.249-1.725-1.23-1.738h.906z" transform="translate(3.248 1) translate(0 15.696)"/>
            <path fill="#112F42" d="M2.706 2.26c-.268.005-.509.056-.72.155-.212.1-.364.248-.456.447v2.095H.644V1.494h.813v.74c.062-.12.135-.226.218-.32.084-.096.174-.178.271-.249.097-.07.195-.124.294-.162.1-.037.195-.056.288-.056h.109c.024 0 .047.003.07.007v.806zm1.93 2.763c-.278 0-.529-.048-.753-.142-.225-.095-.417-.224-.575-.387-.159-.163-.281-.353-.367-.568-.086-.216-.129-.443-.129-.681 0-.247.042-.48.126-.697.083-.218.204-.41.363-.575.159-.166.351-.297.578-.394.227-.096.482-.145.764-.145.282 0 .534.049.756.145.223.097.412.227.569.39.156.163.275.353.357.569.081.216.122.44.122.674 0 .057-.001.112-.004.165-.002.053-.007.097-.016.132H3.75c.014.137.047.258.1.364.052.105.12.196.204.27.084.076.179.133.285.172.105.04.215.06.33.06.176 0 .343-.043.499-.129.156-.086.263-.2.32-.34l.76.211c-.127.265-.331.482-.61.651-.28.17-.614.255-1.002.255zm.899-2.089c-.022-.26-.118-.468-.288-.624-.17-.157-.375-.235-.618-.235-.119 0-.23.021-.333.063-.104.042-.195.1-.275.175-.079.075-.144.165-.195.271-.05.106-.08.222-.089.35h1.798zm6.833 2.023h-.885V3.014c0-.278-.048-.48-.142-.608-.095-.128-.226-.192-.394-.192-.176 0-.341.067-.495.201-.155.135-.265.31-.33.526v2.016h-.886V3.014c0-.278-.048-.48-.142-.608-.095-.128-.226-.192-.394-.192-.171 0-.336.066-.492.198-.156.132-.268.306-.334.522v2.023H6.99V1.494h.8v.64c.127-.224.302-.397.525-.518.222-.121.477-.182.763-.182.29 0 .516.07.674.212.159.14.26.315.304.522.141-.238.32-.42.535-.546.216-.125.463-.188.74-.188.212 0 .386.04.523.119.136.08.242.183.317.31.075.128.127.274.155.437.029.163.043.328.043.495v2.162zm.773 0V1.494h.886v3.463h-.886zm0-3.946V.132h.886v.88h-.886zm2.234.483l.747 1.083.053.12.066-.12.74-1.083h.912l-1.236 1.738 1.256 1.725H17l-.767-1.078-.06-.112-.052.112-.76 1.078h-.912l1.249-1.725-1.23-1.738h.906z" transform="translate(3.248 1) translate(0 15.696)"/>
        </g>
    </g>
</svg>
